<svg width="96" xmlns="http://www.w3.org/2000/svg" height="96" fill="none"><g data-testid="all-icons-icon-small"><g data-testid="button" style="opacity: 1;"><path d="M27.402 0h41.196c9.529 0 12.984.992 16.467 2.855a19.427 19.427 0 0 1 8.08 8.08C95.008 14.418 96 17.873 96 27.402v41.196c0 9.529-.992 12.984-2.855 16.467a19.427 19.427 0 0 1-8.08 8.08C81.582 95.008 78.127 96 68.598 96H27.402c-9.529 0-12.984-.992-16.467-2.855a19.427 19.427 0 0 1-8.08-8.08C.992 81.582 0 78.127 0 68.598V27.402c0-9.529.992-12.984 2.855-16.467a19.427 19.427 0 0 1 8.08-8.08C14.418.992 17.873 0 27.402 0Z" style="fill: rgb(255, 255, 255); fill-opacity: 1;" class="fills"/><g class="strokes"><g class="inner-stroke-shape"><defs><clipPath id="b"><use href="#a"/></clipPath><path d="M27.402 0h41.196c9.529 0 12.984.992 16.467 2.855a19.427 19.427 0 0 1 8.08 8.08C95.008 14.418 96 17.873 96 27.402v41.196c0 9.529-.992 12.984-2.855 16.467a19.427 19.427 0 0 1-8.08 8.08C81.582 95.008 78.127 96 68.598 96H27.402c-9.529 0-12.984-.992-16.467-2.855a19.427 19.427 0 0 1-8.08-8.08C.992 81.582 0 78.127 0 68.598V27.402c0-9.529.992-12.984 2.855-16.467a19.427 19.427 0 0 1 8.08-8.08C14.418.992 17.873 0 27.402 0Z" id="a" style="fill: none; stroke-width: 14; stroke: rgb(0, 0, 0); stroke-opacity: 1;"/></defs><use href="#a" clip-path="url('#b')"/></g></g></g><g data-testid="svg" class="lucide lucide-infinity" style="fill: rgb(0, 0, 0);"><g data-testid="svg-path"><path d="M48 48c-4-5.34-8-8-12-8a8 8 0 0 0 0 16c4 0 8-2.66 12-8Zm0 0c4 5.34 8 8 12 8a8 8 0 0 0 0-16c-4 0-8 2.66-12 8Z" fill="none" style="fill: none;" class="fills"/><g fill="none" stroke-linejoin="round" class="strokes"><path d="M48 48c-4-5.34-8-8-12-8a8 8 0 0 0 0 16c4 0 8-2.66 12-8Zm0 0c4 5.34 8 8 12 8a8 8 0 0 0 0-16c-4 0-8 2.66-12 8Z" style="fill: none; stroke-width: 7; stroke: rgb(0, 0, 0); stroke-opacity: 1;" class="stroke-shape"/></g></g></g></g></svg>